<?xml version="1.0" encoding="utf-8"?>
<!-- Generator: Adobe Adobe Illustrator 24.2.0, SVG Export Plug-In . SVG Version: 6.00 Build 0)  -->
<svg version="1.1" id="Layer_1" xmlns="http://www.w3.org/2000/svg" xmlns:xlink="http://www.w3.org/1999/xlink" x="0px" y="0px"
	 viewBox="0 0 532.19 91.73" style="enable-background:new 0 0 532.19 91.73;" xml:space="preserve">
<style type="text/css">
	.st0{fill:#164769;}
	.st1{fill:#05B0FA;}
	.st2{fill:#233542;}
	.st3{fill:#FFFFFF;}
</style>
<g>
	<g>
		<g>
			<path class="st3" d="M148.76,37.58h-26.05v15.45h25.31v12.28h-25.31v25.12h-12.84V25.3h38.89V37.58z"/>
			<path class="st3" d="M157.6,90.43V22.51h12v67.92H157.6z"/>
			<path class="st3" d="M215.94,43.91h12v46.52h-12v-5.49c-3.6,4.53-8.65,6.79-15.17,6.79c-6.2,0-11.52-2.37-15.96-7.12
				c-4.44-4.74-6.65-10.56-6.65-17.45s2.22-12.7,6.65-17.45c4.43-4.74,9.75-7.12,15.96-7.12c6.51,0,11.57,2.27,15.17,6.79V43.91z
				 M193.8,76.61c2.42,2.45,5.49,3.68,9.21,3.68c3.72,0,6.81-1.22,9.26-3.68c2.45-2.45,3.68-5.6,3.68-9.44
				c0-3.85-1.23-6.99-3.68-9.44c-2.45-2.45-5.53-3.68-9.26-3.68c-3.72,0-6.79,1.23-9.21,3.68c-2.42,2.45-3.63,5.6-3.63,9.44
				C190.17,71.02,191.38,74.17,193.8,76.61z"/>
			<path class="st3" d="M250.83,51.91c1.12-2.98,2.96-5.21,5.54-6.7c2.57-1.49,5.44-2.23,8.61-2.23v13.4
				c-3.66-0.43-6.93,0.31-9.82,2.23c-2.88,1.92-4.33,5.12-4.33,9.58v22.24h-12V43.91h12V51.91z"/>
			<path class="st3" d="M280.32,72.1c1.61,5.83,5.98,8.75,13.12,8.75c4.59,0,8.06-1.55,10.42-4.65l9.67,5.58
				c-4.59,6.64-11.35,9.96-20.28,9.96c-7.69,0-13.86-2.33-18.51-6.98c-4.65-4.65-6.98-10.51-6.98-17.59
				c0-7.01,2.29-12.85,6.89-17.54c4.59-4.68,10.48-7.03,17.68-7.03c6.82,0,12.45,2.36,16.89,7.07c4.43,4.71,6.65,10.55,6.65,17.49
				c0,1.55-0.16,3.2-0.47,4.93H280.32z M280.14,62.8h23.73c-0.68-3.16-2.09-5.52-4.24-7.07c-2.14-1.55-4.57-2.33-7.3-2.33
				c-3.22,0-5.89,0.82-8,2.47C282.22,57.51,280.82,59.82,280.14,62.8z"/>
			<path class="st1" d="M333.08,89.31c-1.55,1.55-3.41,2.33-5.58,2.33c-2.17,0-4.03-0.78-5.58-2.33c-1.55-1.55-2.33-3.41-2.33-5.58
				c0-2.17,0.78-4.03,2.33-5.58c1.55-1.55,3.41-2.33,5.58-2.33c2.17,0,4.03,0.78,5.58,2.33c1.55,1.55,2.33,3.41,2.33,5.58
				C335.41,85.9,334.63,87.77,333.08,89.31z"/>
			<path class="st1" d="M377.09,43.91h12v46.52h-12v-5.49c-3.6,4.53-8.65,6.79-15.17,6.79c-6.2,0-11.52-2.37-15.96-7.12
				c-4.44-4.74-6.65-10.56-6.65-17.45s2.22-12.7,6.65-17.45c4.44-4.74,9.75-7.12,15.96-7.12c6.51,0,11.57,2.27,15.17,6.79V43.91z
				 M354.94,76.61c2.42,2.45,5.49,3.68,9.21,3.68c3.72,0,6.81-1.22,9.26-3.68c2.45-2.45,3.68-5.6,3.68-9.44
				c0-3.85-1.23-6.99-3.68-9.44c-2.45-2.45-5.54-3.68-9.26-3.68c-3.72,0-6.79,1.23-9.21,3.68c-2.42,2.45-3.63,5.6-3.63,9.44
				C351.31,71.02,352.52,74.17,354.94,76.61z"/>
			<path class="st1" d="M410.12,72.1c1.61,5.83,5.98,8.75,13.12,8.75c4.59,0,8.06-1.55,10.42-4.65l9.68,5.58
				c-4.59,6.64-11.35,9.96-20.28,9.96c-7.69,0-13.86-2.33-18.52-6.98c-4.65-4.65-6.98-10.51-6.98-17.59
				c0-7.01,2.29-12.85,6.89-17.54c4.59-4.68,10.48-7.03,17.68-7.03c6.82,0,12.45,2.36,16.89,7.07c4.43,4.71,6.65,10.55,6.65,17.49
				c0,1.55-0.16,3.2-0.47,4.93H410.12z M409.93,62.8h23.73c-0.68-3.16-2.09-5.52-4.23-7.07c-2.14-1.55-4.58-2.33-7.3-2.33
				c-3.23,0-5.89,0.82-8,2.47C412.01,57.51,410.61,59.82,409.93,62.8z"/>
			<path class="st1" d="M466.04,51.91c1.12-2.98,2.96-5.21,5.54-6.7c2.57-1.49,5.44-2.23,8.61-2.23v13.4
				c-3.66-0.43-6.93,0.31-9.81,2.23c-2.88,1.92-4.33,5.12-4.33,9.58v22.24h-12V43.91h12V51.91z"/>
			<path class="st1" d="M525.03,84.62c-4.78,4.74-10.61,7.12-17.49,7.12c-6.89,0-12.7-2.37-17.45-7.12
				c-4.75-4.74-7.12-10.56-7.12-17.45s2.37-12.7,7.12-17.45c4.74-4.74,10.56-7.12,17.45-7.12c6.88,0,12.71,2.37,17.49,7.12
				c4.78,4.74,7.16,10.56,7.16,17.45S529.8,79.87,525.03,84.62z M498.55,76.38c2.39,2.42,5.38,3.63,8.98,3.63
				c3.6,0,6.61-1.21,9.02-3.63c2.42-2.42,3.63-5.49,3.63-9.21s-1.21-6.79-3.63-9.21c-2.42-2.42-5.43-3.63-9.02-3.63
				c-3.6,0-6.59,1.21-8.98,3.63c-2.39,2.42-3.58,5.49-3.58,9.21S496.17,73.96,498.55,76.38z"/>
		</g>
		<g>
			<g>
				<path class="st1" d="M74.27,74.3L74.27,74.3c0,0,8.2-20.15,5-30.77c0,0-31.07,35.21-79.27,30.77c0,0,60.13-17.08,88.04-74.3
					C88.04,0,109.33,59.16,74.27,74.3z"/>
			</g>
		</g>
		<rect y="80.1" class="st1" width="94.45" height="10.33"/>
	</g>
</g>
</svg>
